{
    "asset" : {
        "generator" : "Khronos Blender glTF 2.0 I/O",
        "version" : "2.0"
    },
    "scene" : 0,
    "scenes" : [
        {
            "name" : "Scene",
            "nodes" : [
                3
            ]
        }
    ],
    "nodes" : [
        {
            "mesh" : 0,
            "name" : "Cone2"
        },
        {
            "mesh" : 1,
            "name" : "Cone3"
        },
        {
            "mesh" : 2,
            "name" : "Cube",
            "scale" : [
                0.2035292237997055,
                0.8781198859214783,
                0.22150419652462006
            ]
        },
        {
            "children" : [
                0,
                1,
                2
            ],
            "mesh" : 3,
            "name" : "Cone",
            "scale" : [
                0.4933246374130249,
                0.4933246374130249,
                0.4933246374130249
            ],
            "translation" : [
                0,
                0,
                -0.003159761428833008
            ]
        }
    ],
    "meshes" : [
        {
            "name" : "Cone.001",
            "primitives" : [
                {
                    "attributes" : {
                        "POSITION" : 0,
                        "NORMAL" : 1,
                        "TEXCOORD_0" : 2,
                        "COLOR_0" : 3
                    },
                    "indices" : 4
                }
            ]
        },
        {
            "name" : "Cone.002",
            "primitives" : [
                {
                    "attributes" : {
                        "POSITION" : 5,
                        "NORMAL" : 6,
                        "TEXCOORD_0" : 7,
                        "COLOR_0" : 8
                    },
                    "indices" : 4
                }
            ]
        },
        {
            "name" : "Cube.007",
            "primitives" : [
                {
                    "attributes" : {
                        "POSITION" : 9,
                        "NORMAL" : 10,
                        "TEXCOORD_0" : 11,
                        "COLOR_0" : 12
                    },
                    "indices" : 13
                }
            ]
        },
        {
            "name" : "Cone",
            "primitives" : [
                {
                    "attributes" : {
                        "POSITION" : 14,
                        "NORMAL" : 15,
                        "TEXCOORD_0" : 16,
                        "COLOR_0" : 17
                    },
                    "indices" : 4
                }
            ]
        }
    ],
    "accessors" : [
        {
            "bufferView" : 0,
            "componentType" : 5126,
            "count" : 90,
            "max" : [
                1,
                4.339677810668945,
                1
            ],
            "min" : [
                -1,
                2.3396780490875244,
                -1
            ],
            "type" : "VEC3"
        },
        {
            "bufferView" : 1,
            "componentType" : 5126,
            "count" : 90,
            "type" : "VEC3"
        },
        {
            "bufferView" : 2,
            "componentType" : 5126,
            "count" : 90,
            "type" : "VEC2"
        },
        {
            "bufferView" : 3,
            "componentType" : 5126,
            "count" : 90,
            "type" : "VEC4"
        },
        {
            "bufferView" : 4,
            "componentType" : 5123,
            "count" : 90,
            "type" : "SCALAR"
        },
        {
            "bufferView" : 5,
            "componentType" : 5126,
            "count" : 90,
            "max" : [
                1,
                5.206624984741211,
                1
            ],
            "min" : [
                -1,
                3.206624984741211,
                -1
            ],
            "type" : "VEC3"
        },
        {
            "bufferView" : 6,
            "componentType" : 5126,
            "count" : 90,
            "type" : "VEC3"
        },
        {
            "bufferView" : 7,
            "componentType" : 5126,
            "count" : 90,
            "type" : "VEC2"
        },
        {
            "bufferView" : 8,
            "componentType" : 5126,
            "count" : 90,
            "type" : "VEC4"
        },
        {
            "bufferView" : 9,
            "componentType" : 5126,
            "count" : 36,
            "max" : [
                1,
                1.9525443315505981,
                1
            ],
            "min" : [
                -1,
                -0.047455668449401855,
                -1
            ],
            "type" : "VEC3"
        },
        {
            "bufferView" : 10,
            "componentType" : 5126,
            "count" : 36,
            "type" : "VEC3"
        },
        {
            "bufferView" : 11,
            "componentType" : 5126,
            "count" : 36,
            "type" : "VEC2"
        },
        {
            "bufferView" : 12,
            "componentType" : 5126,
            "count" : 36,
            "type" : "VEC4"
        },
        {
            "bufferView" : 13,
            "componentType" : 5123,
            "count" : 36,
            "type" : "SCALAR"
        },
        {
            "bufferView" : 14,
            "componentType" : 5126,
            "count" : 90,
            "max" : [
                1,
                3.4883944988250732,
                1
            ],
            "min" : [
                -1,
                1.4883944988250732,
                -1
            ],
            "type" : "VEC3"
        },
        {
            "bufferView" : 15,
            "componentType" : 5126,
            "count" : 90,
            "type" : "VEC3"
        },
        {
            "bufferView" : 16,
            "componentType" : 5126,
            "count" : 90,
            "type" : "VEC2"
        },
        {
            "bufferView" : 17,
            "componentType" : 5126,
            "count" : 90,
            "type" : "VEC4"
        }
    ],
    "bufferViews" : [
        {
            "buffer" : 0,
            "byteLength" : 1080,
            "byteOffset" : 0
        },
        {
            "buffer" : 0,
            "byteLength" : 1080,
            "byteOffset" : 1080
        },
        {
            "buffer" : 0,
            "byteLength" : 720,
            "byteOffset" : 2160
        },
        {
            "buffer" : 0,
            "byteLength" : 1440,
            "byteOffset" : 2880
        },
        {
            "buffer" : 0,
            "byteLength" : 180,
            "byteOffset" : 4320
        },
        {
            "buffer" : 0,
            "byteLength" : 1080,
            "byteOffset" : 4500
        },
        {
            "buffer" : 0,
            "byteLength" : 1080,
            "byteOffset" : 5580
        },
        {
            "buffer" : 0,
            "byteLength" : 720,
            "byteOffset" : 6660
        },
        {
            "buffer" : 0,
            "byteLength" : 1440,
            "byteOffset" : 7380
        },
        {
            "buffer" : 0,
            "byteLength" : 432,
            "byteOffset" : 8820
        },
        {
            "buffer" : 0,
            "byteLength" : 432,
            "byteOffset" : 9252
        },
        {
            "buffer" : 0,
            "byteLength" : 288,
            "byteOffset" : 9684
        },
        {
            "buffer" : 0,
            "byteLength" : 576,
            "byteOffset" : 9972
        },
        {
            "buffer" : 0,
            "byteLength" : 72,
            "byteOffset" : 10548
        },
        {
            "buffer" : 0,
            "byteLength" : 1080,
            "byteOffset" : 10620
        },
        {
            "buffer" : 0,
            "byteLength" : 1080,
            "byteOffset" : 11700
        },
        {
            "buffer" : 0,
            "byteLength" : 720,
            "byteOffset" : 12780
        },
        {
            "buffer" : 0,
            "byteLength" : 1440,
            "byteOffset" : 13500
        }
    ],
    "buffers" : [
        {
            "byteLength" : 14940,
            "uri" : "data:application/octet-stream;base64,"
        }
    ]
}
