<svg xmlns="http://www.w3.org/2000/svg" width="14" height="26" viewBox="0 0 14 26">
    <path fill="#FEFEFE" fill-rule="evenodd" stroke="#000" d="M3.99 25V13.008H1V8.89h2.99v-.273c0-.867-.017-1.734.006-2.6.023-.872.107-1.737.413-2.568.47-1.272 1.405-1.999 2.702-2.242.692-.13 1.407-.173 2.113-.191 1.147-.03 2.296-.008 3.445-.008h.267v4.124h-.24c-.868 0-1.735-.016-2.602.008-.344.01-.695.078-1.027.173-.426.123-.55.508-.562.887-.028.88-.009 1.763-.009 2.669H13l-.438 4.123H8.507c-.008.082-.019.142-.019.2l-.004 11.691c0 .04.004.078.006.117h-4.5z"/>
</svg>
