<svg xmlns="http://www.w3.org/2000/svg" width="30" height="26" viewBox="0 0 30 26">
    <path fill="#FEFEFE" fill-rule="evenodd" stroke="#000" d="M8.683 19.779c-2.753-.305-4.6-1.613-5.624-4.213h2.488c-2.83-1.052-4.393-2.992-4.642-6.01l2.499.698.112-.128C.92 7.907.356 5.263 1.752 2.093c3.323 3.882 7.442 6 12.318 6.345.125-1.142.076-2.26.388-3.266 1.295-4.17 6.562-5.547 9.767-2.596.304.28.57.348.919.222 1.06-.38 2.116-.769 3.198-1.163-.415 1.28-1.288 2.261-2.336 3.194l3.053-.812.107.107c-.791.8-1.538 1.65-2.392 2.376-.424.361-.54.697-.537 1.21.027 6.815-4.122 13.296-10.305 15.86C10.634 25.767 5.42 25.417.39 22.626a2.944 2.944 0 0 1-.223-.136c-.035-.023-.061-.059-.167-.165 3.19.2 6.036-.572 8.683-2.546"/>
</svg>
