<svg xmlns="http://www.w3.org/2000/svg" viewBox="0 0 300 300"><defs><style>.cls-1{fill:#fdf2b5;}.cls-1,.cls-4{stroke:#1d1d1b;stroke-miterlimit:10;stroke-width:2px;}.cls-2{fill:#ad98c8;}.cls-3{fill:#1d1d1b;}.cls-4{fill:none;}</style></defs><title>Plan de travail 1 copie 39</title><g id="Calque_2" data-name="Calque 2"><rect class="cls-1" x="26.31" y="114.06" width="21.56" height="185.19"/><rect class="cls-1" x="206.31" y="114.06" width="21.56" height="185.19"/><rect class="cls-2" x="1" y="1" width="251" height="148"/><path class="cls-3" d="M251,2V148H2V2H251m2-2H0V150H253V0Z"/><line class="cls-4" x1="1.18" y1="29.95" x2="253" y2="30.05"/><line class="cls-4" x1="1.18" y1="59.97" x2="253" y2="60.08"/><line class="cls-4" x1="1.18" y1="90" x2="253" y2="90.1"/><line class="cls-4" x1="1.18" y1="120.03" x2="253" y2="120.13"/><rect class="cls-1" x="253" y="55.33" width="12.29" height="41.16"/><rect class="cls-1" x="265.29" y="66.72" width="17.66" height="18.38"/><rect class="cls-2" x="282.95" y="17.24" width="16.05" height="117.35"/><path class="cls-3" d="M298,18.24V133.59H284V18.24H298m2-2H282V135.59H300V16.24Z"/></g></svg>