<svg xmlns="http://www.w3.org/2000/svg" viewBox="0 0 300 300"><defs><style>.cls-1{fill:#fdf2b5;}.cls-1,.cls-2{stroke:#1d1d1b;stroke-miterlimit:10;stroke-width:2px;}.cls-2{fill:#ad98c8;}</style></defs><title>Plan de travail 1 copie 40</title><g id="Calque_2" data-name="Calque 2"><rect class="cls-1" x="185.72" y="22.62" width="20.95" height="276"/><rect class="cls-1" x="271.7" y="22.24" width="20.95" height="276"/><rect class="cls-2" x="228.87" y="-47.58" width="20.95" height="118.7" transform="translate(251.12 -227.58) rotate(90)"/><rect class="cls-1" x="96.61" y="112.66" width="20.95" height="186"/><rect class="cls-1" x="214.86" y="112.29" width="20.95" height="186"/><rect class="cls-2" x="156.39" y="26.81" width="20.95" height="150" transform="translate(268.67 -65.05) rotate(90)"/><rect class="cls-1" x="6.69" y="172.66" width="20.95" height="126"/><rect class="cls-1" x="124.94" y="172.29" width="20.95" height="126"/><rect class="cls-2" x="66.46" y="86.81" width="20.95" height="150" transform="translate(238.75 84.88) rotate(90)"/><polygon class="cls-1" points="125.6 61.34 113.94 61.34 113.94 91.34 137.27 91.34 137.27 76.34 125.46 76.34 125.6 61.34"/><polygon class="cls-1" points="60 121.34 71.67 121.34 71.67 151.34 48.33 151.34 48.33 136.34 60.15 136.34 60 121.34"/></g></svg>