<svg xmlns="http://www.w3.org/2000/svg" viewBox="0 0 300 300"><defs><style>.cls-1{fill:#fdf2b5;stroke-miterlimit:10;}.cls-1,.cls-2{stroke:#1d1d1b;stroke-width:2px;}.cls-2{fill:#ad98c8;stroke-linejoin:bevel;}</style></defs><title>Plan de travail 1 copie 30</title><g id="Calque_2" data-name="Calque 2"><rect class="cls-1" x="99.54" y="91.13" width="19.28" height="208.33"/><rect class="cls-1" x="1.36" y="91.13" width="19.28" height="208.33"/><polygon class="cls-1" points="270.14 15 288.76 15 298.74 298.9 259.07 298.9 270.14 15"/><polygon class="cls-2" points="59.97 180 119.02 219.63 1.52 219.63 59.97 180"/><rect class="cls-1" x="1.52" y="219.63" width="117.5" height="50.38"/><polygon class="cls-2" points="59.77 1.11 118.82 40.74 1.32 40.74 59.77 1.11"/><rect class="cls-1" x="1.32" y="40.74" width="117.5" height="50.38"/><rect class="cls-1" x="130.72" y="150.56" width="19.28" height="98.51"/><rect class="cls-1" x="228.93" y="150.56" width="19.28" height="98.51"/><polygon class="cls-2" points="189.37 209.44 248.42 249.07 130.92 249.07 189.37 209.44"/><rect class="cls-1" x="130.92" y="249.07" width="117.5" height="50.38"/><polygon class="cls-2" points="189.17 60.55 248.22 100.18 130.72 100.18 189.17 60.55"/><rect class="cls-1" x="130.72" y="100.18" width="117.5" height="50.38"/></g></svg>