<svg xmlns="http://www.w3.org/2000/svg" viewBox="0 0 300 300"><defs><style>.cls-1{fill:#fdf2b5;}.cls-1,.cls-2,.cls-3{stroke:#1d1d1b;stroke-width:2px;}.cls-1,.cls-3{stroke-miterlimit:10;}.cls-2,.cls-3{fill:#ad98c8;}.cls-2{stroke-linejoin:bevel;}</style></defs><title>Plan de travail 1 copie 29</title><g id="Calque_2" data-name="Calque 2"><polygon class="cls-1" points="186.24 88.08 204.86 88.08 214.83 298.99 175.17 298.99 186.24 88.08"/><polygon class="cls-2" points="40.99 1.09 81.5 22.79 0.89 22.79 40.99 1.09"/><rect class="cls-1" x="1.57" y="22.79" width="79.93" height="50.38"/><rect class="cls-1" x="1.57" y="73.18" width="18.32" height="225.65"/><rect class="cls-1" x="63.18" y="73.06" width="18.32" height="225.77"/><path class="cls-3" d="M113.81,244.35A54.64,54.64,0,0,0,59.17,299H168.45A54.64,54.64,0,0,0,113.81,244.35Z"/><path class="cls-3" d="M243.93,244.35A54.63,54.63,0,0,0,189.3,299H298.57A54.64,54.64,0,0,0,243.93,244.35Z"/></g></svg>