<svg xmlns="http://www.w3.org/2000/svg" viewBox="0 0 300 300"><defs><style>.cls-1{fill:#fdf2b5;}.cls-1,.cls-2{stroke:#1d1d1b;stroke-miterlimit:10;stroke-width:2px;}.cls-2{fill:#ad98c8;}</style></defs><title>Plan de travail 1 copie 33</title><g id="Calque_2" data-name="Calque 2"><polygon class="cls-1" points="35.58 40.25 54.2 40.25 64.18 189 24.51 189 35.58 40.25"/><polygon class="cls-1" points="168.24 16.92 188.27 16.92 199 165.67 156.33 165.67 168.24 16.92"/><polygon class="cls-1" points="246.96 1.33 224.34 148.67 0.34 148.67 0.34 298.67 177.69 298.67 189.32 298.67 297.96 298.67 276.13 1.33 246.96 1.33"/><polygon class="cls-2" points="209.18 91.29 209.18 148.04 149.22 148.04 209.18 91.29"/><polygon class="cls-2" points="148.31 91.29 148.31 148.04 88.34 148.04 148.31 91.29"/><polygon class="cls-2" points="87.31 91.29 87.31 148.04 27.34 148.04 87.31 91.29"/></g></svg>