<svg xmlns="http://www.w3.org/2000/svg" viewBox="0 0 300 300"><defs><style>.cls-1{fill:#fdf2b5;stroke-miterlimit:10;}.cls-1,.cls-2{stroke:#1d1d1b;stroke-width:2px;}.cls-2{fill:#ad98c8;stroke-linejoin:bevel;}</style></defs><title>Plan de travail 1 copie 37</title><g id="Calque_2" data-name="Calque 2"><polygon class="cls-1" points="45.03 1.42 76.83 1.42 93.87 255.42 26.13 255.42 45.03 1.42"/><polygon class="cls-1" points="126.39 71.75 144.69 71.75 154.49 236.19 115.51 236.19 126.39 71.75"/><polygon class="cls-1" points="171.39 90 189.69 90 199.49 236.19 160.51 236.19 171.39 90"/><polygon class="cls-2" points="109.83 132.29 109.83 160.67 64.76 160.67 109.83 132.29"/><rect class="cls-1" x="64.88" y="160.67" width="44.97" height="60"/><polygon class="cls-2" points="154.48 132.29 154.48 160.67 109.41 160.67 154.48 132.29"/><rect class="cls-1" x="109.52" y="160.67" width="44.97" height="60"/><polygon class="cls-2" points="230.14 150.81 230.14 179.19 185.08 179.19 230.14 150.81"/><rect class="cls-1" x="185.19" y="179.19" width="44.97" height="60"/><rect class="cls-1" x="1.56" y="210" width="296.88" height="88.53"/></g></svg>