<svg xmlns="http://www.w3.org/2000/svg" viewBox="0 0 300 300"><defs><style>.cls-1,.cls-3{fill:#ad98c8;}.cls-1,.cls-2,.cls-3,.cls-4{stroke:#1d1d1b;stroke-width:2px;}.cls-1,.cls-2,.cls-4{stroke-miterlimit:10;}.cls-2{fill:#fdf2b5;}.cls-3{stroke-linejoin:bevel;}.cls-4{fill:none;}</style></defs><title>Plan de travail 1 copie 35</title><g id="Calque_2" data-name="Calque 2"><polygon class="cls-1" points="229.95 90 2.36 90 33.45 0.88 204.44 0.88 229.95 90"/><rect class="cls-2" x="1.59" y="90" width="25.68" height="208.92"/><rect class="cls-2" x="205.8" y="90" width="23.15" height="208.92"/><rect class="cls-2" x="114.76" y="240.39" width="18.65" height="58.53"/><polygon class="cls-2" points="298.3 299.17 278.33 299.1 278.33 240.39 298.3 240.45 298.3 299.17"/><polygon class="cls-3" points="298.32 240 113.29 240 138.56 174.56 277.57 174.56 298.32 240"/><line class="cls-4" x1="27.27" y1="18.23" x2="207.62" y2="18.23"/><line class="cls-4" x1="21.22" y1="36.11" x2="213.37" y2="36.11"/><line class="cls-4" x1="14.55" y1="53.9" x2="218.45" y2="54"/><line class="cls-4" x1="8.95" y1="71.89" x2="223.71" y2="71.89"/><line class="cls-4" x1="133.41" y1="186.25" x2="281.28" y2="186.25"/><line class="cls-4" x1="126.84" y1="204.14" x2="287.21" y2="204.14"/><line class="cls-4" x1="119.74" y1="221.92" x2="293.12" y2="222.02"/><line class="cls-4" x1="56.89" y1="0.88" x2="38" y2="90"/><line class="cls-4" x1="181.78" y1="0.88" x2="199.94" y2="90"/><line class="cls-4" x1="87.41" x2="71.15" y2="90"/><line class="cls-4" x1="148.23" y1="1.79" x2="158.4" y2="90"/><line class="cls-4" x1="117.29" y1="1.79" x2="113.41" y2="90.41"/><line class="cls-4" x1="162.24" y1="174.56" x2="140.11" y2="240.46"/><line class="cls-4" x1="206.35" y1="174.56" x2="206.53" y2="240"/><line class="cls-4" x1="184.05" y1="174.56" x2="173.08" y2="240"/><line class="cls-4" x1="253.55" y1="174.56" x2="274.04" y2="240"/><line class="cls-4" x1="230.9" y1="174.56" x2="242.29" y2="240.23"/></g></svg>