<svg xmlns="http://www.w3.org/2000/svg" viewBox="0 0 300 300"><defs><style>.cls-1{fill:#fdf2b5;}.cls-1,.cls-2{stroke:#1d1d1b;stroke-miterlimit:10;stroke-width:2px;}.cls-2{fill:#ad98c8;}</style></defs><title>Plan de travail 1 copie 38</title><g id="Calque_2" data-name="Calque 2"><polygon class="cls-1" points="254.39 109.58 274.32 109.58 285 258.33 242.54 258.33 254.39 109.58"/><rect class="cls-2" x="-10.63" y="163.14" width="314.33" height="14.02" transform="translate(132.43 -53.96) rotate(37.13)"/><polygon class="cls-1" points="51.11 1.33 73.86 225.47 299.13 225.47 299.13 298.94 120.77 298.94 109.08 298.94 -0.18 298.94 21.78 1.33 51.11 1.33"/><polygon class="cls-2" points="118.29 139.97 68.83 102.03 90.15 94.73 108.83 79.19 117.87 79.94 118.94 87.25 117.36 102.14 124.21 103.54 121.81 122.92 118.29 139.97"/><polygon class="cls-2" points="198.3 200.55 148.63 162.95 169.95 155.66 188.63 140.12 197.67 140.87 198.73 148.18 197.16 163.06 204.01 164.46 201.6 183.84 198.3 200.55"/></g></svg>