<svg xmlns="http://www.w3.org/2000/svg" viewBox="0 0 300 300"><defs><style>.cls-1{fill:#fdf2b5;}.cls-1,.cls-2{stroke:#1d1d1b;stroke-miterlimit:10;stroke-width:2px;}.cls-2{fill:#fd8692;}</style></defs><title>Plan de travail 1 copie 41</title><g id="Calque_2" data-name="Calque 2"><rect class="cls-1" x="51.52" y="151.37" width="20.95" height="147.04"/><rect class="cls-1" x="51.52" y="79.17" width="20.95" height="37.9"/><polygon class="cls-2" points="114.88 95.25 71.54 142.33 61.92 142.33 61.06 142.33 51.44 142.33 8.1 95.25 2.04 101.25 51.44 152.37 61.06 152.37 61.92 152.37 71.54 152.37 120.94 101.25 114.88 95.25"/><polygon class="cls-2" points="71.36 152.37 97 92.37 27 92.37 51.26 152.37 71.36 152.37"/><rect class="cls-1" x="139.93" y="73.57" width="20.95" height="224.9"/><rect class="cls-1" x="139.93" y="1.37" width="20.95" height="37.9"/><polygon class="cls-2" points="213.06 13.19 159.95 70.03 150.33 70.03 149.47 70.03 139.85 70.03 86.57 13.02 80.52 19.02 139.85 80.07 149.47 80.07 150.33 80.07 159.95 80.07 219.11 19.19 213.06 13.19"/><polygon class="cls-2" points="159.77 80.07 185.41 13.02 115.41 13.02 139.67 80.07 159.77 80.07"/><rect class="cls-1" x="228.41" y="164.57" width="20.95" height="133.9"/><rect class="cls-1" x="228.41" y="92.37" width="20.95" height="37.9"/><polygon class="cls-2" points="291.77 108.45 248.43 155.53 238.8 155.53 237.95 155.53 228.32 155.53 184.98 108.45 178.93 114.45 228.32 165.57 237.95 165.57 238.8 165.57 248.43 165.57 297.82 114.45 291.77 108.45"/><polygon class="cls-2" points="248.24 165.57 273.88 105.57 203.88 105.57 228.14 165.57 248.24 165.57"/></g></svg>