<svg xmlns="http://www.w3.org/2000/svg" viewBox="0 0 300 300"><defs><style>.cls-1{fill:#049e9e;}.cls-1,.cls-2{stroke:#1d1d1b;stroke-miterlimit:10;stroke-width:2px;}.cls-2{fill:#326b6d;}</style></defs><title>Plan de travail 1 copie 43</title><g id="Calque_2" data-name="Calque 2"><path class="cls-1" d="M57,289.21c1.29.55,13.47,5.4,14.79,5.89l12.3,3.82H229.81s21.62-4.17,43.12-30.3h0c13.25-18.5,26-55,26-89.73,0-45.48-19.16-84.89-47.12-104.17C237.3,30.89,208.81,1.11,176,1.11c-40.42,0-74.33,45.3-83.56,106.37-1.37-.07-2.75-.11-4.15-.11-47.51,0-87.09,42.32-87.09,94.32,0,39.86,23.7,73.77,55.68,87.5"/><path class="cls-2" d="M252.43,291.9c-1.08.4-11.24,3.91-12.35,4.26l-10.27,2.76H104.56s-7.26-4.67-22.76-24.17h0c-11.06-13.37-21.25-36.38-21.25-61.5,0-32.88,22.66-43.56,46-57.5,12.13-31.68,19.09-72.08,46.45-72.08,33.75,0,62.06,32.74,69.77,76.88,1.15-.05,2.3-.08,3.46-.08,39.68,0,72.72,30.59,72.72,68.17,0,28.82-19.78,53.32-46.49,63.25"/></g></svg>