<svg xmlns="http://www.w3.org/2000/svg" viewBox="0 0 300 300"><defs><style>.cls-1{fill:#049e9e;stroke:#1d1d1b;stroke-miterlimit:10;stroke-width:2px;}</style></defs><title>Plan de travail 1 copie 42</title><g id="Calque_2" data-name="Calque 2"><path class="cls-1" d="M14.63,155.08c8.57-1.24,16.46,5.08,17.67,14.15.68,4.92,4.35,20.12,12,25.49,5.12,3.58,12.39,5.4,18.73,6.27V52.21c0-21.65,16.57-39.19,37-39.19s37,17.54,37,39.19V101c6.78-.75,15.09-2.55,20.77-6.52,7.69-5.37,11.36-20.57,12-25.5,1.21-9.06,9.11-15.39,17.68-14.15S202.14,64.48,201,73.57c-.45,3.45-5,34.08-25.85,48.67-12.31,8.61-27.73,11.33-38.05,12.15V298.5h-74V234.44c-10.23-1-24.48-3.91-36-12C6.18,207.88,1.66,177.25,1.21,173.8,0,164.71,6,156.32,14.63,155.08Z"/><path class="cls-1" d="M282,100.32a18.5,18.5,0,0,0-20.83,15.75c-.81,5.48-5.14,22.4-14.21,28.38a37,37,0,0,1-8.79,4.08V45a43.62,43.62,0,0,0-87.24,0V99.29c-8-.83-17.78-2.84-24.48-7.26-9.06-6-13.39-22.9-14.2-28.37a18.5,18.5,0,0,0-36.64,5.09c.52,3.83,5.85,37.92,30.47,54.17,14.51,9.57,32.69,12.61,44.85,13.51l.47,162.07h87.24l-.47-111.8c9.58-1.95,20.09-5.38,29.17-11.37,24.62-16.24,29.95-50.33,30.47-54.16A18.5,18.5,0,0,0,282,100.32Z"/></g></svg>