<svg xmlns="http://www.w3.org/2000/svg" viewBox="0 0 300 300"><defs><style>.cls-1{fill:#fd8692;}.cls-1,.cls-2{stroke:#1d1d1b;stroke-miterlimit:10;stroke-width:2px;}.cls-2{fill:#fdf2b5;}</style></defs><title>Plan de travail 1 copie 44</title><g id="Calque_2" data-name="Calque 2"><polygon class="cls-1" points="140.76 88.24 185.49 85.15 221.61 64.8 217.43 55.12 175.97 60.77 137.27 80.16 140.76 88.24"/><polygon class="cls-1" points="141.32 84.7 143.38 39.91 127.31 1.69 117.22 4.73 118.07 46.56 132.89 87.24 141.32 84.7"/><polygon class="cls-1" points="132.57 83.09 130.51 127.87 146.58 166.09 156.67 163.05 155.82 121.22 141 80.55 132.57 83.09"/><polygon class="cls-1" points="137.57 80.11 92.76 78.87 54.84 95.63 58.06 105.67 99.87 104.06 140.27 88.49 137.57 80.11"/><polygon class="cls-1" points="138.26 80.77 115.17 57.18 86.51 46.65 83.08 53.61 106.05 74.16 135.4 86.58 138.26 80.77"/><polygon class="cls-1" points="133.16 84.83 108.16 106.39 95.84 134.32 102.58 138.19 124.53 116.56 138.79 88.05 133.16 84.83"/><polygon class="cls-1" points="138.22 90.37 163.71 111.35 193.33 118.75 195.99 111.46 170.96 93.49 140.44 84.28 138.22 90.37"/><polygon class="cls-1" points="142.24 83.81 164.02 59 172.36 29.63 165.15 26.73 146.4 51.18 136.22 81.39 142.24 83.81"/><circle class="cls-2" cx="137.43" cy="83.37" r="12.29"/><polygon class="cls-1" points="80.12 194.52 37.94 188.21 0.21 199.69 2.1 209.54 41.77 212.81 81.7 202.74 80.12 194.52"/><polygon class="cls-1" points="76.88 196.31 64.28 237.06 69.94 276.08 79.96 275.7 89.18 236.98 85.25 195.98 76.88 196.31"/><polygon class="cls-1" points="84.55 199.88 97.15 159.13 91.49 120.11 81.47 120.5 72.25 159.22 76.18 200.21 84.55 199.88"/><polygon class="cls-1" points="79.23 201.42 120.2 213.28 159.12 206.9 158.55 196.89 119.67 188.39 78.76 193.06 79.23 201.42"/><polygon class="cls-1" points="78.76 200.66 94.39 227.9 118.26 244.44 123.08 238.84 106.84 214.44 82.78 195.98 78.76 200.66"/><polygon class="cls-1" points="80.03 197.78 108.2 183.9 126.22 161.12 120.94 155.95 95.56 170.62 75.62 193.46 80.03 197.78"/><polygon class="cls-1" points="81.7 196.15 70.05 166.98 48.73 147.26 43.17 152.12 55.83 178.56 77.06 200.21 81.7 196.15"/><polygon class="cls-1" points="76.74 198.52 50.76 216.16 36.06 241.22 42 245.6 65.11 227.57 81.7 202.19 76.74 198.52"/><polygon class="cls-1" points="208.5 206.26 261.06 193.78 300 162.49 293.13 151.81 244.95 166.67 202.76 197.34 208.5 206.26"/><polygon class="cls-1" points="211.46 202.63 207.05 148.78 181.99 105.57 170.39 110.76 177.82 160.62 201.78 206.96 211.46 202.63"/><polygon class="cls-1" points="200.76 202.05 205.17 255.89 230.24 299.1 241.83 293.92 234.4 244.05 210.44 197.72 200.76 202.05"/><polygon class="cls-1" points="206.28 197.73 152.53 203.12 109.78 228.97 115.17 240.47 164.9 232.13 210.78 207.33 206.28 197.73"/><polygon class="cls-1" points="207.2 198.4 175.98 173.75 140.11 165.57 137.09 174.42 167.69 195.44 204.68 205.79 207.2 198.4"/><polygon class="cls-1" points="207.07 202.39 180.5 232 170.06 267.27 178.7 270.85 201.62 241.64 214.29 205.38 207.07 202.39"/><polygon class="cls-1" points="205.87 205.09 233.33 233.88 267.69 247.01 271.93 238.68 244.58 213.57 209.41 198.13 205.87 205.09"/><polygon class="cls-1" points="210.58 199.96 232.81 166.96 238.26 130.58 229.21 128.23 210.55 160.33 203.02 198 210.58 199.96"/><circle class="cls-2" cx="206.99" cy="201.08" r="13.77"/><circle class="cls-2" cx="80.53" cy="197.72" r="11.58"/></g></svg>