<svg xmlns="http://www.w3.org/2000/svg" viewBox="0 0 300 300"><defs><style>.cls-1{fill:#eb7e83;}.cls-1,.cls-2{stroke:#1d1d1b;stroke-miterlimit:10;stroke-width:2px;}.cls-2{fill:none;}</style></defs><title>Plan de travail 1 copie 49</title><g id="Calque_2" data-name="Calque 2"><polygon class="cls-1" points="120.77 298.45 54.43 298.45 7.04 185.15 0.93 153.06 17.93 119 43.9 128.4 55.74 139.24 120.77 298.45"/><polygon class="cls-1" points="194.41 297.76 102.86 298.44 149.9 76.25 186.1 32.33 211.79 2.03 228.93 42.33 247.77 91.25 194.41 297.76"/><polygon class="cls-1" points="260.18 298.45 170.77 298.45 211.88 191.21 245.93 143.83 284.13 127.22 298.81 163.88 284.51 231.7 260.18 298.45"/><polyline class="cls-1" points="149.9 76.25 195.77 119 247.77 91.25"/><polyline class="cls-1" points="7.04 185.15 30 196.25 55.74 139.24"/><line class="cls-2" x1="30" y1="196.25" x2="70.93" y2="298.45"/><polyline class="cls-1" points="211.88 191.21 233.01 230.67 284.51 231.7"/><line class="cls-2" x1="233.01" y1="230.67" x2="210" y2="298.44"/><line class="cls-2" x1="195.77" y1="119" x2="174" y2="255.25"/><polygon class="cls-1" points="189.84 298.45 93.86 298.44 70.93 203.08 81.38 153.95 103.29 121.66 140.9 148.5 170.77 200 189.84 298.45"/><polyline class="cls-1" points="70.93 203.08 123.93 226.25 170.77 200"/><line class="cls-1" x1="123.93" y1="226.25" x2="140.9" y2="298.09"/></g></svg>