<svg xmlns="http://www.w3.org/2000/svg" viewBox="0 0 300 300"><defs><style>.cls-1{fill:#fdf2b5;}.cls-1,.cls-2{stroke:#1d1d1b;stroke-miterlimit:10;stroke-width:2px;}.cls-2{fill:none;}</style></defs><title>Plan de travail 1 copie 50</title><g id="Calque_2" data-name="Calque 2"><polygon class="cls-1" points="0.9 299 0.9 79.57 71.68 1.17 86.57 3.78 131.07 47 164.5 88.25 176.43 153.28 194.5 270.5 198.43 298.54 0.9 299"/><polyline class="cls-2" points="0.9 79.57 59.5 58.25 86.57 3.78"/><polyline class="cls-2" points="94.43 121.91 98.43 203.33 194.5 270.5"/><polygon class="cls-1" points="186.06 298.88 190.13 148.88 205.25 124.06 232.56 79.88 276.43 114.56 298.94 159.31 298.94 256.01 298.94 299.14 186.06 298.88"/><polyline class="cls-2" points="131.07 47 94.43 121.91 59.5 58.25"/><line class="cls-2" x1="81.73" y1="298.81" x2="98.43" y2="203.33"/><polyline class="cls-2" points="214.3 109.42 209.68 176.06 209.68 234.14 205.25 299.81"/><polyline class="cls-2" points="290.43 298.56 280.25 279.56 209.68 234.14"/><polyline class="cls-2" points="233.18 80.56 238.18 100.31 273.68 149.81 280.25 208.44 280.25 279.56"/><line class="cls-2" x1="298.94" y1="159.31" x2="273.68" y2="149.81"/></g></svg>