<svg xmlns="http://www.w3.org/2000/svg" viewBox="0 0 300 300"><defs><style>.cls-1{fill:#049e9e;}.cls-1,.cls-2,.cls-3{stroke:#1d1d1b;stroke-miterlimit:10;stroke-width:2px;}.cls-2{fill:#f6d9c8;}.cls-3{fill:#f4b295;}</style></defs><title>Plan de travail 1 copie 51</title><g id="Calque_2" data-name="Calque 2"><polygon class="cls-1" points="161.56 255.25 75 289.77 1.3 64.77 29.49 1.31 87.86 30.25 161.56 255.25"/><polygon class="cls-1" points="235.51 288.6 156.06 269.4 219.29 105.19 280.72 65.67 298.74 124.38 235.51 288.6"/><polygon class="cls-1" points="197.32 249.27 120 267.6 96.62 94.61 124.56 63.5 175.01 87.33 197.32 249.27"/><line class="cls-1" x1="101.55" y1="225.25" x2="49.55" y2="65.67"/><polyline class="cls-1" points="96.62 94.61 137.06 121.66 175.01 87.33"/><line class="cls-1" x1="146.97" y1="225.25" x2="137.05" y2="121.66"/><polyline class="cls-1" points="219.29 105.19 246.56 139.5 298.74 124.38"/><line class="cls-1" x1="210" y1="225.25" x2="246.55" y2="139.5"/><polygon class="cls-2" points="15 238.88 15 208.88 278.94 212.63 278.94 244.88 99.59 249.88 15 238.88"/><polygon class="cls-3" points="1.3 298.56 1.52 234.58 298.74 236.65 298.52 298.56 104.86 298.56 1.3 298.56"/><polyline class="cls-1" points="1.3 64.77 49.55 65.67 87.86 30.25"/></g></svg>