<?xml version="1.0" encoding="UTF-8"?>
<svg width="47px" height="47px" viewBox="0 0 47 47" version="1.1" xmlns="http://www.w3.org/2000/svg" xmlns:xlink="http://www.w3.org/1999/xlink">
    <!-- Generator: Sketch 52.4 (67378) - http://www.bohemiancoding.com/sketch -->
    <title>Fill 3</title>
    <desc>Created with Sketch.</desc>
    <g id="Interfaces" stroke="none" stroke-width="1" fill="none" fill-rule="evenodd">
        <g id="Interface_civilisation" transform="translate(-29.000000, -29.000000)" stroke="#000000" stroke-width="2">
            <g id="Group-10" transform="translate(30.000000, 30.000000)">
                <path d="M40.6065366,4.39335259 C34.7487355,-1.46445086 25.2511836,-1.46445086 19.3933824,4.39335259 L14.0899814,9.69660572 C8.76903031,15.0177089 8.28183021,23.3416638 12.6277811,29.2131172 L5.2276796,36.6132216 C5.15357959,36.5215715 5.07527957,36.4326215 4.98872956,36.3486214 C3.82262933,35.2177708 1.96067896,35.2464208 0.829828731,36.4123715 C-0.301021494,37.5783222 -0.272521488,39.4404233 0.893578744,40.5714239 C1.6944289,41.3479744 2.82362913,41.5777745 3.81887932,41.2675743 C3.53927927,42.2716749 3.80342932,43.3933756 4.60442948,44.170226 C5.77052971,45.3010767 7.63248008,45.2724267 8.76333031,44.106476 C9.89418053,42.9403753 9.86568052,41.0782742 8.69973029,39.9474236 C8.62368028,39.8737735 8.54448026,39.8056735 8.46303025,39.7417734 L15.8128817,32.3919191 C21.6828329,36.7168716 29.9901345,36.2230714 35.3032856,30.9099182 L40.6065366,25.6066651 C46.4644878,19.7487116 46.4644878,10.251306 40.6065366,4.39335259" id="Fill-3"></path>
            </g>
        </g>
    </g>
</svg>