<svg xmlns="http://www.w3.org/2000/svg" width="47" height="53" viewBox="0 0 47 53">
    <path fill="none" fill-rule="evenodd" stroke="#000" stroke-width="2" d="M44.815 11.594c-.04-.04-11.65-2.032-18.547 5.021-5.618 5.746-3.992 12.882-3.078 15.568l-5.904 6.226-1.591-8.223-.27.055c2.4-1.9 7.125-6.721 5.773-14.318C19.452 6.11 8.795.99 8.741 1c-.054.01-8.264 8.641-6.517 18.455 1.422 7.994 8.085 10.687 10.765 11.447l1.934 9.998-7.693 8.113L9.234 51l16.072-16.95-.198-.196c2.894.938 9.459 2.169 14.797-3.291 6.897-7.054 4.949-18.929 4.91-18.969"/>
</svg>
