<svg xmlns="http://www.w3.org/2000/svg" viewBox="0 0 300 300"><defs><style>.cls-1{fill:#ad98c8;stroke-linejoin:bevel;}.cls-1,.cls-2,.cls-3,.cls-4{stroke:#1d1d1b;stroke-width:2px;}.cls-2{fill:#fdf2b5;}.cls-2,.cls-3,.cls-4{stroke-miterlimit:10;}.cls-3{fill:#f4b295;}.cls-4{fill:#fff;}</style></defs><title>Plan de travail 1 copie 56</title><g id="Calque_2" data-name="Calque 2"><polygon class="cls-1" points="44.58 49.53 114.02 74.6 1.12 108.62 44.58 49.53"/><rect class="cls-2" x="12.27" y="89.6" width="117.91" height="94.68" transform="translate(-36.48 26.37) rotate(-16.77)"/><polygon class="cls-1" points="248.44 0.99 298.43 101.26 156.47 64.11 248.44 0.99"/><rect class="cls-2" x="140.5" y="80.94" width="146.74" height="107.24" transform="matrix(0.97, 0.25, -0.25, 0.97, 41.04, -49.77)"/><polygon class="cls-3" points="298.43 298.44 1.43 298.44 1.43 232.94 119.87 185.51 298.43 223.76 298.43 298.44"/><polygon class="cls-4" points="143.1 298.44 181.41 298.44 212.23 226.24 180.75 238.99 212.3 181.44 188.61 191.04 216.03 126.26 138.47 220.3 168.9 207.98 125.39 270.36 161.11 255.9 143.1 298.44"/></g></svg>