<svg xmlns="http://www.w3.org/2000/svg" viewBox="0 0 300 300"><defs><style>.cls-1{fill:#eb7e83;}.cls-1,.cls-2{stroke:#1d1d1b;stroke-miterlimit:10;stroke-width:2px;}.cls-2{fill:#b66a64;}</style></defs><title>Plan de travail 1 copie 55</title><g id="Calque_2" data-name="Calque 2"><path class="cls-1" d="M168.41,20.07a18.41,18.41,0,1,0-23.55,17.69V71.67h10.28V37.76A18.42,18.42,0,0,0,168.41,20.07Z"/><path class="cls-1" d="M124.78,286.22a18.41,18.41,0,1,1-16.31-24.52l11.32-32,9.69,3.43-11.31,32A18.41,18.41,0,0,1,124.78,286.22Z"/><path class="cls-1" d="M28.53,140.7A13.28,13.28,0,1,1,44,126.16l24.09,4.19-1.27,7.3-24.09-4.19A13.27,13.27,0,0,1,28.53,140.7Z"/><path class="cls-1" d="M35,58.34a19.33,19.33,0,1,1,30.72-3.56L90.27,80.6,82.44,88,57.93,62.21A19.33,19.33,0,0,1,35,58.34Z"/><path class="cls-1" d="M242.36,41.58a23.47,23.47,0,1,1,3,37.43L213,107.64l-8.69-9.83,32.4-28.62A23.48,23.48,0,0,1,242.36,41.58Z"/><path class="cls-1" d="M279.17,111.35a17.55,17.55,0,1,1-14.56,24l-32.16,3.17-1-9.75,32.17-3.17A17.56,17.56,0,0,1,279.17,111.35Z"/><path class="cls-1" d="M236.83,254.49a17.55,17.55,0,1,1-28.06-1l-18.51-26.49,8-5.62,18.51,26.5A17.55,17.55,0,0,1,236.83,254.49Z"/><path class="cls-1" d="M276.58,210.4a17.56,17.56,0,1,1-26.64,8.85l-26.56-18.42,5.58-8.05,26.56,18.42A17.56,17.56,0,0,1,276.58,210.4Z"/><path class="cls-1" d="M34.13,240.37a22,22,0,1,1,4.06-35l35-20.45,6.2,10.63L44.39,216A22,22,0,0,1,34.13,240.37Z"/><circle class="cls-2" cx="150" cy="150" r="95.78"/><circle class="cls-1" cx="150" cy="150" r="57.84"/></g></svg>