<svg xmlns="http://www.w3.org/2000/svg" viewBox="0 0 300 300"><defs><style>.cls-1{fill:#fdf2b5;stroke:#1d1d1b;stroke-miterlimit:10;stroke-width:2px;}</style></defs><title>Plan de travail 1 copie 54</title><g id="Calque_2" data-name="Calque 2"><polygon class="cls-1" points="248.55 51.33 240 24 231.55 51.33 204.45 60 232.22 69 240 96.28 246.88 68.67 275.55 60 248.55 51.33"/><polygon class="cls-1" points="185.63 114.29 180 96.28 174.43 114.29 156.57 120 174.87 125.93 180 143.72 184.54 125.71 203.43 120 185.63 114.29"/><polygon class="cls-1" points="276.42 134.14 270.32 115.64 264.91 134.14 246.57 140 265.36 146.09 269.87 164.36 275.29 145.86 294.68 140 276.42 134.14"/><path class="cls-1" d="M242.17,232.39A150,150,0,0,1,115.33,2.28,150,150,0,1,0,279,227.82,150.08,150.08,0,0,1,242.17,232.39Z"/></g></svg>