<svg id="89ce7e01-07f8-4d22-b8e9-6457b983f856" data-name="27a9bff6-608d-45fc-aff8-0ab252f1e09c" xmlns="http://www.w3.org/2000/svg" viewBox="0 0 22.92 7.34">
  <title>path</title>
  <path d="M.28,4.77a3.64,3.64,0,0,1,2.08-.69c1.28,0,1.73.83,3.26,1.43.69.26,2.91,1.13,4.27,0a3,3,0,0,0,.71-3.71,3.18,3.18,0,0,0-4.73-.52c-.8,1-1.24,2-.21,2.78,1.61,1.29,4.48-.35,8.05.69,1.61.47,2.23,1.31,3.52,1a2.85,2.85,0,0,0,2.22-2.3A2.51,2.51,0,0,0,18.06,1a2.64,2.64,0,0,0-3.48,1.41c-.28,1,1.18,2,1.6,2.37C18,6.27,20.49,7.66,21.82,6.25a2.83,2.83,0,0,0,.57-2.39" fill="#fff" stroke="#000" stroke-miterlimit="10"/>
</svg>
