<svg id="d6a82629-adce-44f0-ac6b-1146be2b6295" data-name="Calque 1" xmlns="http://www.w3.org/2000/svg" viewBox="0 0 19.37 17.82">
  <title>craft_line</title>
  <path d="M2.54,4.67c.64-.28,1-.93,1.56-1.4S5.53,2.54,6,3.09s0,1.45-.4,2.14A4.44,4.44,0,0,0,5.17,8l4.6-4.17a1.27,1.27,0,0,1,1-.46c.3,1.44-.62,2.84-1.54,4S7.29,9.83,7.36,11.31a.65.65,0,0,0,.21.52c.31.22.7-.14.91-.46a33.48,33.48,0,0,1,4-4.81c.44-.44,1.13-.89,1.61-.5a5.27,5.27,0,0,1-1.17,3.17,7.72,7.72,0,0,0-1.48,3.08A2.31,2.31,0,0,0,13.07,15a.49.49,0,0,0,.52-.17c.12-.2,0-.45-.2-.63-1.48-1.7-3.1-3.28-4.43-5.1A11.5,11.5,0,0,1,6.52,2.87a5.86,5.86,0,0,1,4,3.28c.84,1.57,1.31,3.32,2.14,4.89a3.38,3.38,0,0,0,2.32,2,16.21,16.21,0,0,0-2.38-4.78,22.39,22.39,0,0,1-1.83-2.59,3.93,3.93,0,0,1-.43-3.06A12.14,12.14,0,0,0,5.41,6a7.2,7.2,0,0,0-1.64,5.61.75.75,0,0,0,.23.49.82.82,0,0,0,.56.11,14.24,14.24,0,0,1,3.39,0,3.94,3.94,0,0,1,2.77,1.77c.19-2-1.22-3.8-2.51-5.37S5.63,5.18,6.08,3.21A98.71,98.71,0,0,0,6.85,16.4l4.72-5.06c1.2-1.28,2.66-2.67,4.4-2.52A26.29,26.29,0,0,1,9.68,1" fill="none" stroke="#000" stroke-miterlimit="10" stroke-width="0.5"/>
</svg>
