<?xml version="1.0" encoding="UTF-8"?>
<svg width="27px" height="27px" viewBox="0 0 27 27" version="1.1" xmlns="http://www.w3.org/2000/svg" xmlns:xlink="http://www.w3.org/1999/xlink">
    <!-- Generator: Sketch 52.4 (67378) - http://www.bohemiancoding.com/sketch -->
    <title>Group 8</title>
    <desc>Created with Sketch.</desc>
    <g id="Interfaces" stroke="none" stroke-width="1" fill="none" fill-rule="evenodd" fill-opacity="0.699999988">
        <g id="Interface_civilisation" transform="translate(-1221.000000, -29.000000)" fill="#FFFFFF" stroke="#000000">
            <g id="Group-9" transform="translate(1133.000000, 30.000000)">
                <g id="Group-8" transform="translate(89.000000, 0.000000)">
                    <path d="M25,16.365894 L24.999,16.365894 C24.957,10.2746845 20.31725,5.27550058 14.3745,4.66174105 C14.4025833,4.52966199 14.4175833,4.39283609 14.4175833,4.25242922 C14.4175833,3.99268485 14.3665833,3.74493253 14.2749167,3.518083 L18.75,0 L6.25,0 L10.6555833,3.4633693 C10.54925,3.70487577 10.4898333,3.97169877 10.4898333,4.25242922 C10.4898333,4.39650032 10.5058333,4.53682391 10.5353333,4.67206753 C4.60891667,5.3297979 0,10.351217 0,16.449172 L0.00691666667,16.449172 L0.00691666667,19.1344741 L0,19.1344741 L0,21.0948404 C0,23.2515765 1.74958333,25 3.90783333,25 L21.09225,25 C23.2504167,25 25,23.2515765 25,21.0947571 L25,19.7005986 L25,16.365894 Z" id="Fill-22"></path>
                </g>
            </g>
        </g>
    </g>
</svg>