<?xml version="1.0" encoding="UTF-8"?>
<svg width="27px" height="27px" viewBox="0 0 27 27" version="1.1" xmlns="http://www.w3.org/2000/svg" xmlns:xlink="http://www.w3.org/1999/xlink">
    <!-- Generator: Sketch 52.4 (67378) - http://www.bohemiancoding.com/sketch -->
    <title>Fill 14</title>
    <desc>Created with Sketch.</desc>
    <g id="Interfaces" stroke="none" stroke-width="1" fill="none" fill-rule="evenodd" fill-opacity="0.699999988">
        <g id="Interface_civilisation" transform="translate(-1132.000000, -29.000000)" fill="#FFFFFF" stroke="#000000">
            <g id="Group-9" transform="translate(1133.000000, 30.000000)">
                <path d="M24.9994167,14.9991666 C24.9891667,11.823652 22.8265,9.15592966 19.8939167,8.37703142 C21.4286667,7.69747479 22.5,6.16193016 22.5,4.37536461 C22.5,1.95891324 20.54125,0 18.125,0 C15.70875,0 13.75,1.95891324 13.75,4.37536461 C13.75,6.16193016 14.82125,7.69747479 16.356,8.37703142 C13.4235,9.15592966 11.2608333,11.823652 11.2505833,14.9991666 L11.25,14.9991666 L11.25,16.8174848 L11.2495,16.8174848 C11.2410833,14.2193516 9.47166667,12.0366697 7.07233333,11.3993666 C8.328,10.8433203 9.2045,9.58704892 9.2045,8.12526044 C9.2045,6.14817901 7.60191667,4.54537878 5.625,4.54537878 C3.64808333,4.54537878 2.04541667,6.14817901 2.04541667,8.12526044 C2.04541667,9.58704892 2.92191667,10.8433203 4.17766667,11.3993666 C1.77833333,12.0366697 0.00883333333,14.2193516 0.0005,16.8174848 L0,16.8174848 L0,25 L11.25,25 L25,25 L25,14.9991666 L24.9994167,14.9991666 Z" id="Fill-14"></path>
            </g>
        </g>
    </g>
</svg>