<?xml version="1.0" encoding="UTF-8"?>
<svg width="27px" height="27px" viewBox="0 0 27 27" version="1.1" xmlns="http://www.w3.org/2000/svg" xmlns:xlink="http://www.w3.org/1999/xlink">
    <!-- Generator: Sketch 52.4 (67378) - http://www.bohemiancoding.com/sketch -->
    <title>Fill 20</title>
    <desc>Created with Sketch.</desc>
    <g id="Interfaces" stroke="none" stroke-width="1" fill="none" fill-rule="evenodd" fill-opacity="0.699999988">
        <g id="Interface_civilisation" transform="translate(-1310.000000, -29.000000)" fill="#FFFFFF" stroke="#000000">
            <g id="Group-9" transform="translate(1133.000000, 30.000000)">
                <path d="M190.499958,18.876489 C186.978364,18.876489 184.123511,16.0216359 184.123511,12.5000417 C184.123511,8.97836406 186.978364,6.12351099 190.499958,6.12351099 C194.021636,6.12351099 196.876406,8.97836406 196.876406,12.5000417 C196.876406,16.0216359 194.021636,18.876489 190.499958,18.876489 M200.702307,12.5000417 C200.702307,11.1767335 201.71005,10.0890156 203,9.96200534 C202.66934,8.32471587 202.024698,6.80142705 201.132291,5.45685322 C200.130386,6.27804149 198.649462,6.22116626 197.714106,5.28589394 C196.778834,4.35053823 196.721875,2.86961395 197.543147,1.86770921 C196.198573,0.975218411 194.675284,0.330660253 193.037995,0 C192.910984,1.28986687 191.823266,2.29769263 190.499958,2.29769263 C189.176734,2.29769263 188.088932,1.28986687 187.961922,0 C186.324716,0.330660253 184.801344,0.975218411 183.45677,1.86770921 C184.278041,2.86961395 184.221166,4.35053823 183.285811,5.28589394 C182.350538,6.22116626 180.869614,6.27804149 179.867709,5.45685322 C178.975218,6.80142705 178.33066,8.32471587 178,9.96200534 C179.289867,10.0890156 180.297609,11.1767335 180.297609,12.5000417 C180.297609,13.8232665 179.289867,14.9109844 178,15.0379947 C178.33066,16.6752841 178.975218,18.1985729 179.867709,19.5431468 C180.869614,18.7218751 182.350538,18.7788337 183.285811,19.7141061 C184.221166,20.6494618 184.278041,22.1303861 183.45677,23.1322908 C184.801344,24.0247816 186.324716,24.6693397 187.961922,25 C188.088932,23.7101331 189.176734,22.7023074 190.499958,22.7023074 C191.823266,22.7023074 192.910984,23.7101331 193.037995,25 C194.675284,24.6693397 196.198573,24.0247816 197.543147,23.1322908 C196.721875,22.1303861 196.778834,20.6494618 197.714106,19.7141061 C198.649462,18.7788337 200.130386,18.7218751 201.132291,19.5431468 C202.024782,18.1985729 202.66934,16.6752841 203,15.0379947 C201.71005,14.9109844 200.702307,13.8232665 200.702307,12.5000417" id="Fill-20"></path>
            </g>
        </g>
    </g>
</svg>