<svg xmlns="http://www.w3.org/2000/svg" viewBox="0 0 2012.02 245.3"><defs><style>.cls-1{fill:#fff;}.cls-2{fill:#7ae2b6;}</style></defs><title>logo</title><g id="logo"><path class="cls-1" d="M1165.5,20.35v3.42h-34v-4h-4C981.12,19.77,959,82.07,959,127.49v8.73c0,44.54,22.7,108.88,168.55,108.88h14.56c146.14,0,168.56-64.34,168.56-108.88v-8.73C1310.67,84.61,1290.93,26.7,1165.5,20.35Zm30,112.9c0,18.82-14.12,40.13-59,40.13-44.28,0-58.67-22.14-58.67-40.68v-3.32c0-18,13-38.47,58.67-38.47,45.11,0,59,20.48,59,38.47Z"/><path d="M1070.88,129.38v3.32A42.49,42.49,0,0,0,1086,165.3c11.64,10,28.63,15.08,50.51,15.08,48.62,0,66-24.34,66-47.13v-3.87A39.81,39.81,0,0,0,1187.35,98c-11.51-9.33-28.6-14-50.8-14-22.42,0-39.55,4.74-50.91,14.08A40,40,0,0,0,1070.88,129.38Zm65.67-38.47c45.11,0,59,20.48,59,38.47v3.87c0,18.82-14.12,40.13-59,40.13-44.28,0-58.67-22.14-58.67-40.68v-3.32C1077.88,111.39,1090.88,90.91,1136.55,90.91Z"/><path d="M1157.5,20v7c55.18,1.79,95.23,13.47,119.14,34.79,18.19,16.22,27,37.7,27,65.67v8.73c0,27.41-9.14,49.6-27.18,66C1250.21,226,1205,238.1,1142.11,238.1h-14.56c-62.77,0-107.95-12.09-134.27-35.92-18.1-16.4-27.28-38.59-27.28-66v-8.73c0-28,8.84-49.45,27-65.67,26.09-23.25,71.35-35,134.53-35h4v-7h-4C981.12,19.77,959,82.07,959,127.49v8.73c0,44.54,22.7,108.88,168.55,108.88h14.56c146.14,0,168.56-64.34,168.56-108.88v-8.73C1310.67,83.72,1290.1,24.27,1157.5,20Z"/><path class="cls-2" d="M114.13,240.73H3.5V24.14H242.8c46.58,0,85.3,11.65,85.3,54.73v2.62c0,32.32-30.28,46-50.07,50.07,34.64,6.7,51.23,26.2,51.23,54.44v32.9c0,10.77,1.46,15.72,3.79,20.09v1.74H219.22c-1.45-1.45-1.45-3.49-1.45-6.69v-26.2c0-22.13-10.78-36.39-41.93-36.39H114.13ZM194.77,110.6c15.13,0,20.08-5.82,20.08-13.68,0-8.15-5.24-13.68-20.08-13.68H114.13V110.6Z"/><path class="cls-2" d="M605.25,24.14V84.69H453v16.89H603.5V161H453V179.6H606.41v61.13H344.11V24.14Z"/><path class="cls-1" d="M622.13,24.14H860.56c65.79,0,82.09,24.45,82.09,48.62V74.5c0,24.46-21.25,38.43-43.08,43.09,27.95,4.66,55.89,18.92,55.89,57.35v2.33c0,34.06-23.58,63.46-94.9,63.46H622.13ZM732.76,80.33v21h77.43c13.69,0,19.51-2.62,19.51-10.48v-.59c0-8.15-5.82-9.89-19.51-9.89Zm0,75.4v26.78h81.8c18.92,0,23.29-5.53,23.29-13.68v-.59c0-8.15-4.37-12.51-23.29-12.51Z"/><path class="cls-1" d="M1439.77,240.4l-110.62-.69,1.34-216.59,239.3,1.48c46.58.29,85.22,12.18,85,55.26v2.62c-.2,32.32-30.56,45.81-50.38,49.76,34.6,6.91,51.07,26.52,50.9,54.76l-.21,32.9c-.07,10.77,1.36,15.73,3.66,20.11v1.74l-113.83-.7c-1.44-1.47-1.43-3.5-1.41-6.71l.16-26.2c.14-22.12-10.54-36.45-41.69-36.65l-61.72-.38Zm81.45-129.63c15.14.09,20.12-5.7,20.17-13.56,0-8.15-5.16-13.72-20-13.81l-80.64-.5-.17,27.37Z"/><path class="cls-1" d="M1796,23.87l101.28,99,.61-98.4,110.62.69-1.34,216.59-112.67-.7-113.44-109-.67,108.29-110.62-.68L1671.1,23.1Z"/><path d="M1662.17,245.28l-118.78-.74-1-1c-2.46-2.5-2.44-5.6-2.42-9.19l.16-26.2c.07-10.82-2.57-18.68-8-24-6.12-6-16.27-9-30.16-9.11l-58.22-.36-.43,69.29-117.62-.73L1327,19.6l242.8,1.5c27,.17,47.13,4.1,61.69,12,17.88,9.71,26.88,25.45,26.75,46.77l0,2.63c-.16,26.2-19.26,42.13-40.44,49.66,27,9,41.12,27.81,41,54.85l-.21,32.9c-.06,10.09,1.2,14.54,3.26,18.46l.41.77ZM1547,237.56l107,.66c-1.59-4.14-2.56-9.45-2.51-18.35l.21-32.89c.17-27.64-16-44.9-48.09-51.3v-6.87c6.89-1.37,20.09-5,31.08-13.57s16.41-19.53,16.49-32.78l0-2.62c.11-18.81-7.44-32.08-23.09-40.58-13.52-7.35-32.62-11-58.39-11.16L1334,26.64l-1.3,209.59,103.62.64.43-69.28,65.22.4c16,.1,27.43,3.73,35,11.1,6.92,6.74,10.25,16.25,10.17,29.07l-.16,26.2A30.31,30.31,0,0,0,1547,237.56Zm-25.46-123.29h-.37l-84.14-.52.21-34.37,84.14.52c19.49.12,23.53,9.49,23.48,17.33S1540.74,114.27,1521.57,114.27Zm-.33-7h.34c16.25,0,16.29-7.32,16.31-10.08.06-10.18-11.56-10.26-16.52-10.29l-77.14-.48-.13,20.37Z"/><path d="M2010.64,245.3l-117.56-.73L1784.5,140.24l-.64,103.65-117.63-.73,1.39-223.59,129.8.81,1,1,95.39,93.26L1894.4,21l117.62.73Zm-114.73-7.71,107.77.67L2005,28.67,1901.35,28l-.64,103.15L1794.55,27.36l-120-.74-1.3,209.59,103.62.64.7-112.94Z"/><path d="M860.56,244.23H618.63V20.64H860.56c39.05,0,85.59,9,85.59,52.12V74.5c0,21.8-15.34,35.58-32.89,42.59,30,8.71,45.7,28.51,45.7,57.85v2.33c0,19.61-7.62,36-22,47.26C920.24,237.6,894.54,244.23,860.56,244.23Zm-234.93-7H860.56c32.38,0,56.62-6.12,72-18.21C945.45,209,952,194.9,952,177.27v-2.33c0-29.91-17.82-48-53-53.9l-.15-6.87c19.49-4.16,40.31-16.76,40.31-39.67V72.76c0-29.94-26.44-45.12-78.59-45.12H625.63ZM814.56,186h-85.3V152.23h85.3c23.55,0,26.79,7.7,26.79,16v.59C841.35,184.06,827,186,814.56,186Zm-78.3-7h78.3c19.79,0,19.79-6.13,19.79-10.18v-.59c0-4.22,0-9-19.79-9h-78.3Zm73.93-74.22H729.26v-28h80.93c9.17,0,23,0,23,13.4v.58C833.2,104.79,817.66,104.79,810.19,104.79Zm-73.93-7h73.93c16,0,16-3.87,16-7v-.58c0-4-.77-6.4-16-6.4H736.26Z"/><path d="M336.55,244.23H217.77l-1-1c-2.49-2.48-2.49-5.58-2.49-9.17v-26.2c0-22.75-11.84-32.89-38.42-32.89H117.63v69.28H0V20.64H242.8c26.95,0,47.16,3.8,61.77,11.62,17.93,9.6,27,25.28,27,46.61v2.62c0,26.2-19,42.25-40.13,49.91,27.08,8.88,41.29,27.56,41.29,54.6v32.9c0,10.09,1.29,14.54,3.38,18.44l.41.77Zm-115.18-7h107c-1.61-4.13-2.62-9.43-2.62-18.33V186c0-27.63-16.28-44.79-48.4-51l0-6.86c6.88-1.42,20.06-5.09,31-13.77S324.6,94.74,324.6,81.49V78.87c0-18.81-7.63-32-23.33-40.44-13.58-7.26-32.7-10.79-58.47-10.79H7V237.23H110.63V168h65.21c30.14,0,45.42,13.42,45.42,39.89V234A26.71,26.71,0,0,0,221.37,237.23ZM194.77,114.1H110.63V79.74h84.14c19.49,0,23.58,9.34,23.58,17.18S214.26,114.1,194.77,114.1Zm-77.14-7h77.14c16.58,0,16.58-7.4,16.58-10.18,0-10.18-11.62-10.18-16.58-10.18H117.63Z"/><path d="M609.91,244.23H340.61V20.64H608.75V88.19H456.49v9.89H607v66.39H456.49V176.1H609.91Zm-262.3-7h255.3V183.1H449.49V157.47H600V105.08H449.49V81.19H601.75V27.64H347.61Z"/></g><g id="fleche"><polygon points="1112.9 45.6 1108.1 40.51 1126.46 23.19 1108.04 4.98 1112.96 0 1136.54 23.31 1112.9 45.6"/></g></svg>